<svg id="Capa_1" enable-background="new 0 0 512 512" height="512" viewBox="0 0 512 512" width="512" xmlns="http://www.w3.org/2000/svg"><g><path d="m286 422.69 60 81.81h30l30-81.81z" fill="#89c1ff"/><path d="m303.14 382.5h-94.28-102.86l30 122h72.86l47.14-47.054 47.14 47.054h42.86v-122z" fill="#b8d8ff"/><path d="m76 387.52-46.18 26.95c-13.82 8.07-22.32 22.87-22.32 38.87v51.16h128.5z" fill="#3d5168"/><path d="m482.18 414.47-30-17.51c0 .01 22.32 107.54 22.32 107.54h30v-51.16c0-16-8.5-30.8-22.32-38.87z" fill="#233952"/><path d="m452.18 396.97-16.18-9.45-60 116.98h98.5v-68.67c0-16-8.5-30.8-22.32-38.86z" fill="#3d5168"/><path d="m346 307.5h-30l30 132.17c.37.22.75.43 1.13.63 2.77 1.43 5.87 2.2 9.06 2.2 10.94 0 19.81-8.87 19.81-19.81h45l-45-70.19v-15c0-16.57-13.43-30-30-30z" fill="#dbebff"/><path d="m316 307.5h-150c-16.57 0-30 13.43-30 30v15l-45 70.19h45c0 5.47 2.22 10.42 5.8 14.01 3.59 3.58 8.54 5.8 14.01 5.8 6.39 0 12.4-3.09 16.11-8.29l36.94-51.71h94.28l36.94 51.71c1.6 2.24 3.62 4.08 5.92 5.46v-102.17c0-16.57-13.43-30-30-30z" fill="#fffbf3"/><path d="m136 504.5-42-31.5c-11.33-8.5-18-21.84-18-36v-49.48l60-35.02z" fill="#57697d"/><path d="m436 387.52v49.48c0 14.16-6.67 27.5-18 36l-42 31.5v-152z" fill="#57697d"/><path d="m279.72 349.71c-5.47-7.66-14.31-12.21-23.72-12.21s-18.25 4.55-23.72 12.21l-23.42 32.79h94.28z" fill="#233952"/><path d="m279.72 371.57c-5.47-2.553-14.31-4.07-23.72-4.07s-18.25 1.517-23.72 4.07l-23.42 10.93 32.14 45 15 15 15-15 32.14-45z" fill="#3d5168"/><path d="m271 427.5 32.14 77h-94.28l32.14-77z" fill="#233952"/><path d="m319.685 7.5c-2.493 0-4.959.114-7.395.331l-56.29 269.669s145.838-84.406 145.858-187.815c0-45.384-36.79-82.185-82.173-82.185z" fill="#1b74d6"/><path d="m371.859 89.685c0-42.962-26.193-78.212-59.569-81.853-22.667 2.022-42.684 13.247-56.29 29.913-15.069-18.458-37.999-30.245-63.685-30.245-45.383 0-82.174 36.801-82.174 82.185.02 103.409 145.859 187.815 145.859 187.815s115.843-84.406 115.859-187.815z" fill="#1e8aff"/><path d="m177.961 227.854c36.664 34.216 72.763 55.258 74.282 56.137 1.162.672 2.459 1.009 3.757 1.009s2.595-.336 3.757-1.009c1.519-.879 37.619-21.921 74.282-56.137 21.67-20.223 38.972-40.846 51.427-61.296 15.85-26.025 23.888-51.889 23.893-76.873-.001-49.453-40.228-89.685-89.674-89.685-24.13 0-46.897 9.578-63.685 26.541-16.789-16.963-39.556-26.541-63.685-26.541-49.446 0-89.674 40.232-89.674 89.686.005 24.983 8.044 50.846 23.894 76.872 12.454 20.45 29.757 41.073 51.426 61.296zm14.354-212.854c22.519 0 43.614 10.019 57.875 27.489 1.425 1.745 3.558 2.757 5.81 2.757s4.386-1.012 5.81-2.757c14.261-17.47 35.355-27.489 57.875-27.489 41.175 0 74.674 33.503 74.674 74.683-.018 88.788-115.836 165.058-138.359 179.044-22.523-13.986-138.341-90.256-138.359-179.042 0-41.182 33.499-74.685 74.674-74.685z"/><path d="m485.964 407.998-102.464-59.805v-10.693c0-20.678-16.822-37.5-37.5-37.5h-180c-20.678 0-37.5 16.822-37.5 37.5v10.693l-56.281 32.849c-2.303 1.344-3.719 3.811-3.719 6.478v49.48c0 16.437 7.851 32.138 21 42l24 18h-98.5v-43.661c0-13.282 7.126-25.692 18.597-32.387l15.761-9.199c3.577-2.088 4.785-6.681 2.697-10.258-2.089-3.579-6.683-4.785-10.258-2.697l-15.76 9.199c-16.06 9.374-26.037 26.748-26.037 45.342v51.161c0 4.142 3.358 7.5 7.5 7.5h497c4.142 0 7.5-3.358 7.5-7.5v-51.161c0-18.594-9.977-35.968-26.036-45.341zm-57.464-16.172v45.174c0 11.74-5.607 22.956-15 30l-30 22.5v-123.938zm-161.36 28.174h-22.28l-26.786-37.5 20.31-28.435c4.055-5.676 10.64-9.065 17.616-9.065s13.561 3.389 17.615 9.065l20.31 28.435zm-21.143 15h20.007l25.881 62h-71.769zm33.532-6.537 23.613-33.059 30.83 43.161c5.115 7.16 13.422 11.435 22.221 11.435 4.426 0 8.606-1.065 12.307-2.943v49.943h-60.361zm-136.029-90.963c0-12.407 10.093-22.5 22.5-22.5h180c12.407 0 22.5 10.093 22.5 22.5v85.193c0 6.786-5.521 12.307-12.307 12.307-3.965 0-7.709-1.927-10.015-5.154l-60.357-84.499c-6.863-9.61-18.011-15.347-29.821-15.347-11.809 0-22.958 5.737-29.822 15.347l-60.357 84.5c-2.305 3.227-6.049 5.154-10.015 5.154-6.786 0-12.307-5.521-12.307-12.307v-85.194zm-60 99.5v-45.174l45-26.265v123.939l-30-22.5c-9.393-7.044-15-18.259-15-30zm60 10.058c3.701 1.877 7.881 2.942 12.307 2.942 8.799 0 17.106-4.275 22.221-11.435l30.83-43.161 23.614 33.059-28.612 68.537h-60.36zm353.5 49.942h-98.5l24-18c13.149-9.862 21-25.563 21-42v-36.419l34.903 20.372c11.471 6.694 18.597 19.104 18.597 32.386z"/></g></svg>